<?xml version="1.0" encoding="utf-8"?>
<!-- Generator: Adobe Illustrator 24.0.1, SVG Export Plug-In . SVG Version: 6.00 Build 0)  -->
<svg version="1.1" id="Layer_1" xmlns="http://www.w3.org/2000/svg" xmlns:xlink="http://www.w3.org/1999/xlink" x="0px" y="0px"
	 viewBox="0 0 23 23" style="enable-background:new 0 0 23 23;" xml:space="preserve">
<style type="text/css">
	.st0{fill:#F6F6F6;}
	.st1{fill:#878787;}
	.st2{fill:none;}
</style>
<path class="st0" d="M20.6,23H2.4C1.1,23,0,21.9,0,20.6V2.4C0,1.1,1.1,0,2.4,0h18.1C21.9,0,23,1.1,23,2.4v18.1
	C23,21.9,21.9,23,20.6,23z"/>
<path class="st1" d="M20.3,0H2.6C1.2,0,0,1.2,0,2.6v17.9C0,21.9,1.2,23,2.6,23h17.8c1.4,0,2.6-1.1,2.6-2.6V2.6
	C22.9,1.2,21.8,0,20.3,0z M21.4,21.6H1.5V1.5h19.9V21.6z"/>
<path class="st2" d="M-0.5-0.5h24v24h-24V-0.5z"/>
</svg>
