<?xml version="1.0" encoding="utf-8"?>
<!-- Generator: Adobe Illustrator 24.0.1, SVG Export Plug-In . SVG Version: 6.00 Build 0)  -->
<svg version="1.1" id="Слой_1" xmlns="http://www.w3.org/2000/svg" xmlns:xlink="http://www.w3.org/1999/xlink" x="0px" y="0px"
	 viewBox="0 0 26 26" style="enable-background:new 0 0 26 26;" xml:space="preserve">
<style type="text/css">
	.st0{fill:#1D1D1B;}
</style>
<path class="st0" d="M13,9.5c-1.9,0-3.5,1.6-3.5,3.5s1.6,3.5,3.5,3.5s3.5-1.6,3.5-3.5S14.9,9.5,13,9.5z M13,14.9
	c-1,0-1.9-0.8-1.9-1.9s0.8-1.9,1.9-1.9s1.9,0.8,1.9,1.9S14,14.9,13,14.9z"/>
<path class="st0" d="M4.5,1C2.6,1,1,2.6,1,4.5C1,6.4,2.6,8,4.5,8C6.4,8,8,6.4,8,4.5C8,2.6,6.4,1,4.5,1z M4.5,6.4
	c-1,0-1.9-0.8-1.9-1.9c0-1,0.8-1.9,1.9-1.9c1,0,1.9,0.8,1.9,1.9C6.4,5.5,5.5,6.4,4.5,6.4z"/>
<g>
	<path class="st0" d="M2.6,4.5c0-0.3,0.1-0.5,0.2-0.7H1.7C1.3,3.8,1,4.1,1,4.5s0.3,0.7,0.7,0.7h1.1C2.7,5,2.6,4.8,2.6,4.5z"/>
	<path class="st0" d="M24.3,3.8h-18C6.3,4,6.4,4.2,6.4,4.5c0,0.3-0.1,0.5-0.2,0.8h18c0.4,0,0.7-0.3,0.7-0.7S24.7,3.8,24.3,3.8z"/>
</g>
<g>
	<path class="st0" d="M11.1,13c0-0.3,0.1-0.5,0.2-0.7H1.7C1.3,12.3,1,12.6,1,13s0.3,0.7,0.7,0.7h9.6C11.2,13.5,11.1,13.3,11.1,13z"
		/>
	<path class="st0" d="M24.3,12.3h-9.6c0.1,0.2,0.2,0.5,0.2,0.7s-0.1,0.5-0.2,0.7h9.6c0.4,0,0.7-0.3,0.7-0.7S24.7,12.3,24.3,12.3z"/>
</g>
<path class="st0" d="M21.5,18c-1.9,0-3.5,1.6-3.5,3.5c0,1.9,1.6,3.5,3.5,3.5c1.9,0,3.5-1.6,3.5-3.5C25,19.6,23.4,18,21.5,18z
	 M21.5,23.4c-1,0-1.9-0.8-1.9-1.9c0-1,0.8-1.9,1.9-1.9c1,0,1.9,0.8,1.9,1.9C23.4,22.5,22.5,23.4,21.5,23.4z"/>
<g>
	<path class="st0" d="M19.6,21.5c0-0.3,0.1-0.5,0.2-0.7h-18c-0.4,0-0.7,0.3-0.7,0.7s0.3,0.7,0.7,0.7h18C19.7,22,19.6,21.8,19.6,21.5
		z"/>
	<path class="st0" d="M24.3,20.7h-1.1c0.1,0.2,0.2,0.5,0.2,0.7s-0.1,0.5-0.2,0.7h1.1c0.4,0,0.7-0.3,0.7-0.7S24.7,20.7,24.3,20.7z"/>
</g>
</svg>
